<svg width="22" height="23" viewBox="0 0 22 23" fill="none" xmlns="http://www.w3.org/2000/svg">
<g id="Group 190">
<path id="Vector" d="M16 1.13672H6C3.23858 1.13672 1 3.37529 1 6.13672V16.1367C1 18.8981 3.23858 21.1367 6 21.1367H16C18.7614 21.1367 21 18.8981 21 16.1367V6.13672C21 3.37529 18.7614 1.13672 16 1.13672Z" stroke="white" stroke-width="2" stroke-linecap="round" stroke-linejoin="round"/>
<path id="Vector_2" d="M14.9997 10.5068C15.1231 11.339 14.981 12.189 14.5935 12.9358C14.206 13.6826 13.5929 14.2882 12.8413 14.6664C12.0898 15.0447 11.2382 15.1764 10.4075 15.0427C9.57683 14.909 8.80947 14.5169 8.21455 13.9219C7.61962 13.327 7.22744 12.5597 7.09377 11.729C6.96011 10.8983 7.09177 10.0467 7.47003 9.29515C7.84829 8.54363 8.45389 7.93052 9.20069 7.54302C9.94749 7.15552 10.7975 7.01336 11.6297 7.13678C12.4786 7.26266 13.2646 7.65824 13.8714 8.26508C14.4782 8.87193 14.8738 9.65785 14.9997 10.5068Z" stroke="white" stroke-width="2" stroke-linecap="round" stroke-linejoin="round"/>
<path id="Vector_3" d="M16.5 5.63672H16.51" stroke="white" stroke-width="2" stroke-linecap="round" stroke-linejoin="round"/>
</g>
</svg>
