<svg width="148" height="90" viewBox="0 0 148 90" fill="none" xmlns="http://www.w3.org/2000/svg">
<g id="Frame 15459">
<g id="Group 175">
<path id="Vector" d="M51.3095 39.0493C51.1947 39.0493 51.087 39.0062 50.9864 38.9201C50.9003 38.8197 50.8574 38.7121 50.8574 38.5973C50.8574 38.5112 50.8645 38.4466 50.879 38.4036L55.8938 24.6071C56.0373 24.191 56.3243 23.9829 56.7548 23.9829H60.1124C60.5429 23.9829 60.8299 24.191 60.9734 24.6071L65.9882 38.4036C66.0027 38.4466 66.0098 38.5112 66.0098 38.5973C66.0098 38.7121 65.9595 38.8197 65.8592 38.9201C65.7731 39.0062 65.6728 39.0493 65.558 39.0493H62.7599C62.4155 39.0493 62.1714 38.8914 62.0279 38.5758L61.2533 36.488H55.6139L54.8393 38.5758C54.6958 38.8914 54.4517 39.0493 54.1073 39.0493H51.3095ZM56.5181 33.2595H60.3491L58.4336 27.771L56.5181 33.2595Z" fill="black"/>
<path id="Vector_2" d="M72.543 39.0492C69.5011 39.0492 67.98 37.6215 67.98 34.766V30.7842H66.2799C66.1364 30.7842 66.0071 30.734 65.8923 30.6335C65.792 30.5187 65.7417 30.3896 65.7417 30.2461V28.3951C65.7417 28.2373 65.792 28.1081 65.8923 28.0077C66.0071 27.9073 66.1364 27.857 66.2799 27.857H67.98V24.3057C67.98 24.1478 68.0303 24.0187 68.1309 23.9182C68.2457 23.8178 68.3747 23.7676 68.5182 23.7676H71.1657C71.3234 23.7676 71.4527 23.8178 71.553 23.9182C71.6536 24.0187 71.7036 24.1478 71.7036 24.3057V27.857H74.394C74.552 27.857 74.681 27.9073 74.7816 28.0077C74.8964 28.1081 74.9538 28.2373 74.9538 28.3951V30.2461C74.9538 30.4039 74.8964 30.5331 74.7816 30.6335C74.681 30.734 74.552 30.7842 74.394 30.7842H71.7036V34.4432C71.7036 34.9454 71.7971 35.3256 71.9835 35.5839C72.1699 35.8422 72.4714 35.9713 72.8874 35.9713H74.5878C74.7458 35.9713 74.8748 36.0287 74.9754 36.1435C75.0757 36.244 75.126 36.3731 75.126 36.5309V38.5111C75.126 38.6546 75.0757 38.7837 74.9754 38.8985C74.8748 38.999 74.7458 39.0492 74.5878 39.0492H72.543Z" fill="black"/>
<path id="Vector_3" d="M77.4211 39.0492C77.2631 39.0492 77.127 38.999 77.0122 38.8985C76.9116 38.7981 76.8616 38.6689 76.8616 38.5111V24.3057C76.8616 24.1478 76.9116 24.0187 77.0122 23.9182C77.127 23.8178 77.2631 23.7676 77.4211 23.7676H80.1115C80.2691 23.7676 80.3985 23.8178 80.4987 23.9182C80.5994 24.0187 80.6497 24.1478 80.6497 24.3057V38.5111C80.6497 38.6546 80.5994 38.7837 80.4987 38.8985C80.3985 38.999 80.2691 39.0492 80.1115 39.0492H77.4211Z" fill="black"/>
<path id="Vector_4" d="M86.4833 39.2645C85.7229 39.2645 85.027 39.121 84.3956 38.834C83.7784 38.5327 83.2908 38.1237 82.9319 37.6072C82.5875 37.0906 82.4153 36.5238 82.4153 35.9068C82.4153 34.9311 82.8171 34.1419 83.6207 33.5392C84.4385 32.9222 85.5578 32.4989 86.9783 32.2694L89.6474 31.8604V31.6021C89.6474 31.0712 89.5397 30.6838 89.3243 30.4399C89.1092 30.1959 88.7432 30.074 88.2266 30.074C87.9396 30.074 87.6958 30.1242 87.4949 30.2246C87.3085 30.3251 87.0931 30.4757 86.8493 30.6766C86.6626 30.8345 86.4978 30.9493 86.3543 31.021C86.2969 31.1215 86.225 31.1717 86.1389 31.1717H83.6423C83.4988 31.1717 83.3769 31.1286 83.2763 31.0425C83.1902 30.9421 83.1544 30.8273 83.1686 30.6981C83.1831 30.3107 83.3769 29.8803 83.7497 29.4067C84.1228 28.9189 84.6897 28.5028 85.4501 28.1584C86.2108 27.814 87.1505 27.6418 88.2698 27.6418C90.0489 27.6418 91.3691 28.0364 92.2301 28.8256C93.0911 29.6005 93.5216 30.6551 93.5216 31.9896V38.5112C93.5216 38.6546 93.4713 38.7838 93.3707 38.8986C93.2704 38.999 93.1411 39.0492 92.9834 39.0492H90.3359C90.1924 39.0492 90.0634 38.999 89.9486 38.8986C89.848 38.7838 89.798 38.6546 89.798 38.5112V37.7578C89.4823 38.2026 89.0447 38.5685 88.4849 38.8555C87.9254 39.1281 87.2582 39.2645 86.4833 39.2645ZM87.5594 36.7247C88.1908 36.7247 88.7003 36.5167 89.0876 36.1005C89.4894 35.6844 89.6903 35.0818 89.6903 34.2926V34.0343L87.9038 34.3356C86.6984 34.5652 86.096 34.9957 86.096 35.627C86.096 35.957 86.2321 36.2225 86.5049 36.4234C86.7919 36.6243 87.1434 36.7247 87.5594 36.7247Z" fill="black"/>
<path id="Vector_5" d="M100.555 39.2645C99.3781 39.2645 98.3952 39.0994 97.6061 38.7694C96.817 38.4394 96.2285 38.0448 95.8412 37.5856C95.4681 37.1265 95.2817 36.7104 95.2817 36.3373C95.2817 36.1938 95.3317 36.079 95.4323 35.9929C95.5471 35.8925 95.669 35.8422 95.798 35.8422H98.4026C98.4884 35.8422 98.5603 35.8709 98.6177 35.9283C98.8615 36.0862 98.9979 36.1795 99.0266 36.2081C99.2994 36.409 99.5503 36.5669 99.7799 36.6817C100.024 36.7821 100.311 36.8323 100.641 36.8323C101.028 36.8323 101.344 36.7606 101.588 36.6171C101.846 36.4593 101.975 36.244 101.975 35.9714C101.975 35.7418 101.904 35.5553 101.76 35.4118C101.631 35.2683 101.373 35.132 100.985 35.0028C100.612 34.8593 100.038 34.7158 99.2633 34.5724C96.7809 34.0702 95.5397 32.9222 95.5397 31.1286C95.5397 30.5403 95.7264 29.9807 96.0995 29.4498C96.4868 28.9046 97.0466 28.4669 97.7783 28.1369C98.5245 27.8069 99.4142 27.6418 100.447 27.6418C101.495 27.6418 102.399 27.8069 103.159 28.1369C103.934 28.4525 104.522 28.84 104.924 29.2991C105.326 29.744 105.527 30.1529 105.527 30.526C105.527 30.6551 105.476 30.7699 105.376 30.8703C105.29 30.9708 105.182 31.021 105.053 31.021H102.686C102.556 31.021 102.456 30.9923 102.384 30.9349C102.212 30.8488 102.04 30.7412 101.868 30.612C101.609 30.4399 101.38 30.3107 101.179 30.2246C100.992 30.1242 100.749 30.074 100.447 30.074C100.089 30.074 99.8086 30.1529 99.6077 30.3107C99.4068 30.4686 99.3065 30.6694 99.3065 30.9134C99.3065 31.1286 99.3639 31.308 99.4787 31.4515C99.6077 31.5806 99.8589 31.7097 100.232 31.8389C100.619 31.968 101.2 32.1044 101.975 32.2478C103.382 32.4918 104.4 32.9294 105.032 33.5608C105.677 34.1778 106 34.9024 106 35.7346C106 36.8108 105.52 37.6717 104.558 38.3174C103.611 38.9488 102.277 39.2645 100.555 39.2645Z" fill="black"/>
<path id="Vector_6" d="M54.8744 53.837C54.164 53.837 53.6135 53.599 53.2227 53.123V53.4642C53.2227 53.5352 53.1978 53.599 53.1482 53.6561C53.0985 53.7057 53.0344 53.7306 52.9563 53.7306H51.7522C51.6813 53.7306 51.6174 53.7057 51.5603 53.6561C51.5107 53.599 51.4858 53.5352 51.4858 53.4642V46.4314C51.4858 46.3533 51.5107 46.2894 51.5603 46.2396C51.6174 46.1899 51.6813 46.165 51.7522 46.165H53.0521C53.1305 46.165 53.1943 46.1899 53.244 46.2396C53.2936 46.2894 53.3188 46.3533 53.3188 46.4314V48.7117C53.7164 48.2926 54.2349 48.083 54.8744 48.083C55.5635 48.083 56.1069 48.3068 56.5048 48.7543C56.9024 49.2019 57.1156 49.8092 57.144 50.5765C57.151 50.6688 57.1546 50.7967 57.1546 50.9601C57.1546 51.1164 57.151 51.2407 57.144 51.333C57.1085 52.1285 56.8953 52.7467 56.5048 53.1872C56.114 53.6203 55.5706 53.837 54.8744 53.837ZM54.2991 52.4091C54.6329 52.4091 54.8708 52.3098 55.0127 52.1108C55.162 51.912 55.2472 51.6385 55.2688 51.2904C55.283 51.1483 55.2901 51.0382 55.2901 50.9601C55.2901 50.8819 55.283 50.7718 55.2688 50.6297C55.2472 50.2817 55.162 50.0082 55.0127 49.8092C54.8708 49.6103 54.6329 49.5109 54.2991 49.5109C53.9863 49.5109 53.7483 49.6068 53.5851 49.7986C53.4216 49.9904 53.333 50.2319 53.3188 50.5232L53.3081 50.9175L53.3188 51.3224C53.3401 51.642 53.4252 51.9049 53.5745 52.1108C53.7306 52.3098 53.9721 52.4091 54.2991 52.4091Z" fill="black"/>
<path id="Vector_7" d="M59.0025 55.7549C58.9387 55.7549 58.8851 55.7336 58.8426 55.6911C58.8 55.6485 58.7787 55.595 58.7787 55.5311C58.7787 55.4815 58.7894 55.4354 58.8106 55.3928L59.6417 53.3893L57.5959 48.5518C57.5746 48.4949 57.564 48.4523 57.564 48.4239C57.5782 48.3599 57.6065 48.3067 57.6491 48.2641C57.692 48.2143 57.7452 48.1895 57.809 48.1895H59.0238C59.1731 48.1895 59.276 48.2641 59.3327 48.4132L60.5475 51.514L61.7942 48.4132C61.8654 48.2641 61.9718 48.1895 62.1141 48.1895H63.3072C63.3714 48.1895 63.4246 48.2143 63.4672 48.2641C63.5168 48.3067 63.5416 48.3564 63.5416 48.4132C63.5416 48.4417 63.531 48.4878 63.5097 48.5518L60.4943 55.5311C60.4375 55.6804 60.3308 55.7549 60.1747 55.7549H59.0025Z" fill="black"/>
<path id="Vector_8" d="M66.2664 53.9448C66.1954 53.9448 66.1316 53.92 66.0745 53.8703C66.0248 53.8133 66 53.7494 66 53.6785V46.7522C66 46.6741 66.0248 46.6102 66.0745 46.5604C66.1316 46.5107 66.1954 46.4858 66.2664 46.4858H67.6091C67.6872 46.4858 67.751 46.5107 67.8007 46.5604C67.8507 46.6102 67.8755 46.6741 67.8755 46.7522V49.1178L69.8468 46.6883C69.9319 46.5533 70.0706 46.4858 70.2621 46.4858H71.7968C71.8606 46.4858 71.9138 46.5107 71.9564 46.5604C71.9993 46.6031 72.0206 46.6528 72.0206 46.7096C72.0206 46.7594 72.0099 46.802 71.9883 46.8375L69.4311 50.0555L72.1802 53.593C72.2086 53.6214 72.2228 53.6643 72.2228 53.721C72.2228 53.7778 72.2015 53.831 72.1589 53.881C72.1163 53.9236 72.0631 53.9448 71.9993 53.9448H70.4114C70.2408 53.9448 70.099 53.8739 69.9851 53.7317L67.8755 51.0997V53.6785C67.8755 53.7565 67.8507 53.8204 67.8007 53.8703C67.751 53.92 67.6872 53.9448 67.6091 53.9448H66.2664Z" fill="black"/>
<path id="Vector_9" d="M74.9797 53.837C74.6033 53.837 74.2586 53.766 73.9461 53.6238C73.6408 53.4748 73.3992 53.2759 73.2215 53.0272C73.051 52.7715 72.9658 52.491 72.9658 52.1856C72.9658 51.6953 73.1648 51.301 73.5624 51.0026C73.9674 50.7043 74.5214 50.4983 75.2247 50.3846L76.5569 50.1822V50.033C76.5569 49.7631 76.4998 49.5641 76.3863 49.4363C76.2725 49.3084 76.0809 49.2445 75.8107 49.2445C75.6475 49.2445 75.5124 49.2729 75.406 49.3297C75.2992 49.3865 75.1893 49.4647 75.0754 49.5641C74.9761 49.6494 74.9016 49.7062 74.852 49.7346C74.8304 49.7915 74.7913 49.8199 74.7346 49.8199H73.573C73.5021 49.8199 73.4418 49.7986 73.3921 49.7559C73.3492 49.7062 73.3315 49.6494 73.3386 49.5854C73.3457 49.3937 73.4382 49.1805 73.6159 48.9461C73.8004 48.7117 74.0774 48.5093 74.4469 48.3388C74.8233 48.1683 75.285 48.083 75.8323 48.083C76.7059 48.083 77.3524 48.2784 77.7713 48.6691C78.1905 49.0527 78.4001 49.5713 78.4001 50.2248V53.4642C78.4001 53.5351 78.3753 53.599 78.3256 53.6561C78.276 53.7057 78.2118 53.7305 78.1338 53.7305H76.8977C76.8268 53.7305 76.7626 53.7057 76.7059 53.6561C76.6562 53.599 76.6314 53.5351 76.6314 53.4642V53.0911C76.475 53.3113 76.2547 53.4926 75.9706 53.6344C75.6936 53.7696 75.3634 53.837 74.9797 53.837ZM75.4805 52.6222C75.8071 52.6222 76.0703 52.5158 76.2689 52.3026C76.475 52.0895 76.5782 51.777 76.5782 51.3649V51.2158L75.6723 51.3756C75.0329 51.4893 74.7133 51.713 74.7133 52.0469C74.7133 52.2246 74.7878 52.3665 74.9371 52.4732C75.0864 52.5725 75.2673 52.6222 75.4805 52.6222Z" fill="black"/>
<path id="Vector_10" d="M79.8689 53.7306C79.798 53.7306 79.7338 53.7057 79.677 53.6561C79.6274 53.599 79.6025 53.5352 79.6025 53.4642V46.4314C79.6025 46.3533 79.6274 46.2894 79.677 46.2396C79.7338 46.1899 79.798 46.165 79.8689 46.165H81.1262C81.2043 46.165 81.2684 46.1899 81.3181 46.2396C81.3678 46.2894 81.3926 46.3533 81.3926 46.4314V53.4642C81.3926 53.5423 81.3678 53.6061 81.3181 53.6561C81.2684 53.7057 81.2043 53.7306 81.1262 53.7306H79.8689Z" fill="black"/>
<path id="Vector_11" d="M84.6868 53.8369C84.0615 53.8369 83.5572 53.6273 83.1738 53.2084C82.79 52.782 82.5981 52.189 82.5981 51.4288V48.4558C82.5981 48.3777 82.623 48.3138 82.673 48.2641C82.7226 48.2143 82.7865 48.1895 82.8645 48.1895H84.1966C84.2747 48.1895 84.3385 48.2143 84.3885 48.2641C84.4453 48.3138 84.4736 48.3777 84.4736 48.4558V51.3648C84.4736 52.061 84.7826 52.4089 85.4008 52.4089C85.699 52.4089 85.9335 52.3167 86.1041 52.1319C86.2743 51.9473 86.3598 51.6916 86.3598 51.3648V48.4558C86.3598 48.3777 86.3846 48.3138 86.4343 48.2641C86.491 48.2143 86.5549 48.1895 86.6262 48.1895H87.958C88.036 48.1895 88.1002 48.2143 88.1498 48.2641C88.1995 48.3138 88.2243 48.3777 88.2243 48.4558V53.4641C88.2243 53.535 88.1995 53.5989 88.1498 53.656C88.1002 53.7056 88.036 53.7304 87.958 53.7304H86.7219C86.651 53.7304 86.5871 53.7056 86.5301 53.656C86.4804 53.5989 86.4556 53.535 86.4556 53.4641V53.0591C86.0863 53.5776 85.4965 53.8369 84.6868 53.8369Z" fill="black"/>
<path id="Vector_12" d="M89.7442 53.7305C89.6661 53.7305 89.6019 53.7057 89.5523 53.6561C89.5026 53.6061 89.4778 53.5422 89.4778 53.4642V48.4559C89.4778 48.3778 89.5026 48.3139 89.5523 48.2642C89.6019 48.2144 89.6661 48.1896 89.7442 48.1896H90.9695C91.0476 48.1896 91.1118 48.2144 91.1614 48.2642C91.2182 48.3139 91.2466 48.3778 91.2466 48.4559V48.8609C91.4384 48.6264 91.6835 48.4382 91.9818 48.2961C92.2872 48.154 92.6319 48.083 93.0153 48.083C93.6406 48.083 94.1485 48.2961 94.5393 48.7223C94.9298 49.1415 95.1253 49.7311 95.1253 50.4912V53.4642C95.1253 53.5351 95.1004 53.599 95.0508 53.6561C95.0008 53.7057 94.9369 53.7305 94.8589 53.7305H93.5161C93.4452 53.7305 93.3813 53.7057 93.3246 53.6561C93.2746 53.599 93.2497 53.5351 93.2497 53.4642V50.5551C93.2497 50.2212 93.1682 49.9655 93.0047 49.7879C92.8415 49.6032 92.6071 49.5109 92.3014 49.5109C92.0031 49.5109 91.7686 49.6032 91.5984 49.7879C91.4278 49.9655 91.3427 50.2212 91.3427 50.5551V53.4642C91.3427 53.5351 91.3175 53.599 91.2678 53.6561C91.2182 53.7057 91.1543 53.7305 91.076 53.7305H89.7442Z" fill="black"/>
<path id="Vector_13" d="M99.0419 56.0746C98.367 56.0746 97.82 55.9646 97.4008 55.7444C96.9819 55.5241 96.6798 55.272 96.4953 54.9879C96.3176 54.7038 96.229 54.4658 96.229 54.2739C96.229 54.2101 96.2573 54.1533 96.3141 54.1033C96.3708 54.0537 96.4347 54.0288 96.506 54.0288H97.8591C97.93 54.0288 97.9835 54.043 98.019 54.0714C98.0616 54.1069 98.1006 54.1639 98.1361 54.242C98.2073 54.4055 98.3031 54.5332 98.424 54.6254C98.5446 54.7251 98.733 54.7747 98.9887 54.7747C99.3154 54.7747 99.5569 54.6931 99.7133 54.5296C99.8694 54.3732 99.9477 54.1069 99.9477 53.7305V53.0166C99.5853 53.4145 99.0667 53.6132 98.3918 53.6132C97.6743 53.6132 97.1238 53.4036 96.7404 52.9847C96.3638 52.5584 96.1577 51.9439 96.1222 51.1412L96.1116 50.8535C96.1116 49.9939 96.3035 49.319 96.6869 48.8289C97.0706 48.3316 97.6388 48.083 98.3918 48.083C98.7542 48.083 99.0738 48.154 99.3508 48.2961C99.6278 48.4311 99.8623 48.6158 100.054 48.8502V48.4559C100.054 48.3778 100.079 48.3139 100.129 48.2642C100.186 48.2144 100.25 48.1896 100.32 48.1896H101.546C101.624 48.1896 101.688 48.218 101.738 48.2748C101.795 48.3245 101.823 48.3849 101.823 48.4559V53.5812C101.823 54.391 101.581 55.0092 101.098 55.4355C100.615 55.8614 99.93 56.0746 99.0419 56.0746ZM98.9674 52.2281C99.287 52.2281 99.525 52.132 99.6814 51.9403C99.8374 51.7414 99.9264 51.4928 99.9477 51.1945C99.9548 51.1447 99.9584 51.0346 99.9584 50.8641C99.9584 50.7007 99.9548 50.5942 99.9477 50.5444C99.9335 50.2461 99.8445 50.001 99.6814 49.8092C99.525 49.6103 99.287 49.5109 98.9674 49.5109C98.6333 49.5109 98.3918 49.6103 98.2428 49.8092C98.0935 50.0081 98.0119 50.2816 97.9977 50.6297L97.9871 50.8641C97.9871 51.2832 98.058 51.6171 98.2002 51.8657C98.3421 52.1072 98.5978 52.2281 98.9674 52.2281Z" fill="black"/>
<path id="Vector_14" d="M103.334 47.3905C103.256 47.3905 103.192 47.3656 103.142 47.3159C103.093 47.2662 103.067 47.2022 103.067 47.1241V46.1651C103.067 46.0869 103.093 46.023 103.142 45.9733C103.192 45.9235 103.256 45.8987 103.334 45.8987H104.613C104.691 45.8987 104.755 45.9235 104.805 45.9733C104.854 46.023 104.879 46.0869 104.879 46.1651V47.1241C104.879 47.2022 104.854 47.2662 104.805 47.3159C104.755 47.3656 104.691 47.3905 104.613 47.3905H103.334ZM103.345 53.7306C103.266 53.7306 103.203 53.7058 103.153 53.6561C103.103 53.6061 103.078 53.5423 103.078 53.4643V48.456C103.078 48.3779 103.103 48.314 103.153 48.2642C103.203 48.2145 103.266 48.1896 103.345 48.1896H104.602C104.68 48.1896 104.744 48.2145 104.794 48.2642C104.844 48.314 104.868 48.3779 104.868 48.456V53.4643C104.868 53.5352 104.844 53.599 104.794 53.6561C104.744 53.7058 104.68 53.7306 104.602 53.7306H103.345Z" fill="black"/>
<path id="Vector_15" fill-rule="evenodd" clip-rule="evenodd" d="M17.0449 20L28.9992 22.0493L38.6818 31.9018L37.1681 38.4768L40.1748 44.627L33.1662 55.2255L20.7215 59.9343L6.70239 55.2049L0 37.276L5.15723 26.2739L12.0294 25.0156L17.0449 20ZM10.0228 27.0222L6.26464 27.7103L3.5558 33.4891L10.0228 27.0222ZM3.09221 40.943L7.23525 52.0256L8.69779 47.0955L3.09221 40.943ZM9.96653 48.488L8.77857 52.4926L11.6745 50.3627L9.96653 48.488ZM12.9806 49.4021L10.5023 46.682L11.3259 43.9056L16.5765 46.7575L12.9806 49.4021ZM12.7665 51.5611L9.04922 54.2949L18.0122 57.3187L12.7665 51.5611ZM20.9329 58.1304L14.0725 50.6006L18.1419 47.6077L30.7065 54.4323L20.9329 58.1304ZM34.4226 50.4023L38.3213 44.5068L36.5935 40.9726L34.4226 50.4023ZM35.4687 38.6717L32.0898 53.3487L19.5769 46.5523L34.0998 35.8715L35.4687 38.6717ZM36.0433 36.176L36.5238 34.0888L35.42 34.9007L36.0433 36.176ZM34.7002 33.4285L34.7505 33.3914L34.6864 33.4003L34.7002 33.4285ZM33.9414 31.8764L36.0998 31.5748L31.5112 26.9057L33.9414 31.8764ZM28.1507 23.703L32.2614 32.1112L14.0706 34.6531L16.6969 25.8002L28.1507 23.703ZM23.9876 22.8261L17.2111 24.0668L17.8893 21.7806L23.9876 22.8261ZM15.6435 23.6816L14.8207 24.5045L15.4327 24.3925L15.6435 23.6816ZM14.9185 26.1258L12.8141 26.5111L3.14539 36.1798L12.3161 34.8983L14.9185 26.1258ZM11.8123 36.5967L3.40933 37.7709L10.3462 41.5387L11.8123 36.5967ZM11.7947 42.3254L18.0116 45.7021L33.38 34.3994L33.0063 33.6351L13.5668 36.3515L11.7947 42.3254ZM9.87746 43.1189L9.23355 45.2895L4.68768 40.3001L9.87746 43.1189Z" fill="#4678EE"/>
</g>
</g>
</svg>
