<svg width="599" height="39" viewBox="0 0 599 39" fill="none" xmlns="http://www.w3.org/2000/svg">
<path d="M154.622 18.2572C155.532 19.2059 156 20.488 156 22.129V30.7187H152.594V23.1033C152.594 22.1546 152.308 21.3854 151.762 20.8213C151.216 20.2572 150.462 19.9751 149.5 19.9751C148.382 20.0008 147.472 20.3598 146.822 21.1033C146.172 21.8469 145.834 22.77 145.834 23.9239V30.6931H142.454V11.6162H145.834V19.5649C146.796 17.77 148.46 16.8469 150.852 16.8213C152.438 16.8469 153.686 17.3085 154.622 18.2572ZM134.966 19.7957C133.848 19.7957 132.938 20.1803 132.236 20.9239C131.534 21.6674 131.196 22.6674 131.196 23.8469C131.196 25.0777 131.56 26.0777 132.236 26.8213C132.938 27.5649 133.848 27.9495 134.966 27.9495C136.63 27.9495 137.878 27.411 138.71 26.3341L140.816 28.0521C140.192 28.9495 139.334 29.6418 138.346 30.1033C137.332 30.5905 136.136 30.8213 134.784 30.8213C133.406 30.8213 132.21 30.5392 131.144 29.9495C130.104 29.3854 129.246 28.5392 128.674 27.488C128.076 26.4367 127.79 25.2315 127.79 23.8469C127.79 22.4623 128.102 21.2316 128.674 20.1803C129.246 19.129 130.104 18.2828 131.17 17.7187C132.236 17.129 133.458 16.8469 134.836 16.8469C136.11 16.8469 137.228 17.0521 138.216 17.5136C139.204 17.9751 140.01 18.5649 140.634 19.3854L138.606 21.3085C137.67 20.3085 136.448 19.7957 134.966 19.7957ZM125.632 16.9751V30.7187H122.252V28.5392C121.784 29.2828 121.108 29.8726 120.328 30.2828C119.548 30.6931 118.638 30.8982 117.624 30.8982C116.298 30.8982 115.154 30.5905 114.166 30.0008C113.178 29.411 112.398 28.5905 111.852 27.5136C111.306 26.4367 111.02 25.2059 111.02 23.8213C111.02 22.4623 111.306 21.2316 111.852 20.1803C112.398 19.129 113.178 18.3085 114.166 17.7187C115.154 17.129 116.298 16.8469 117.598 16.8469C118.612 16.8469 119.522 17.0521 120.328 17.4623C121.108 17.8726 121.784 18.4623 122.278 19.2059V17.0008L125.632 16.9751ZM121.03 27.0521C121.732 26.3854 122.148 25.488 122.252 24.3598V23.3854C122.148 22.2828 121.732 21.3854 121.03 20.6931C120.328 20.0264 119.418 19.6674 118.326 19.6674C117.156 19.6674 116.22 20.0521 115.492 20.8469C114.764 21.6162 114.4 22.6418 114.374 23.8726C114.4 25.1033 114.764 26.1033 115.492 26.8982C116.22 27.6674 117.156 28.0777 118.326 28.0777C119.418 28.0777 120.328 27.7444 121.03 27.0521ZM107.588 18.7444C108.706 20.0008 109.252 21.7444 109.252 24.0264C109.252 24.4623 109.252 24.7957 109.226 25.0264H98.982C99.216 26.0008 99.658 26.77 100.36 27.3341C101.062 27.8982 101.92 28.1803 102.934 28.1803C103.636 28.1803 104.338 28.0521 104.962 27.77C105.612 27.5136 106.184 27.129 106.652 26.6162L108.472 28.488C107.77 29.2572 106.912 29.8469 105.95 30.2315C104.962 30.6418 103.844 30.8469 102.648 30.8469C101.218 30.8469 99.97 30.5649 98.904 29.9751C97.838 29.411 96.98 28.5649 96.408 27.5136C95.81 26.4623 95.524 25.2572 95.524 23.8726C95.524 22.5136 95.81 21.2828 96.408 20.2315C96.98 19.1803 97.864 18.3341 98.904 17.7444C99.97 17.1546 101.192 16.8469 102.57 16.8469C104.806 16.8726 106.47 17.488 107.588 18.7444ZM106.184 22.77C106.158 21.77 105.82 20.9495 105.17 20.3598C104.52 19.77 103.688 19.4623 102.622 19.4623C101.634 19.4623 100.802 19.77 100.152 20.3598C99.476 20.9495 99.086 21.77 98.93 22.7956H106.184V22.77ZM91.884 17.5649C92.69 17.1033 93.626 16.8469 94.692 16.8213V20.0521C93.262 19.9751 92.118 20.2828 91.26 21.0521C90.402 21.7957 89.986 22.7956 89.986 24.0777V30.7187H86.606V16.9751H89.986V19.6162C90.428 18.7187 91.078 18.0521 91.884 17.5649ZM84.058 29.8726C82.94 30.5392 81.796 30.8726 80.574 30.8726C79.378 30.8726 78.39 30.5136 77.636 29.8213C76.882 29.129 76.492 28.1033 76.492 26.7444V13.7444L79.846 13.3598V17.5392H83.824V19.9751H79.846V26.1803C79.846 26.8213 79.976 27.2572 80.21 27.5392C80.444 27.7956 80.808 27.9495 81.302 27.9495C81.822 27.9495 82.472 27.77 83.278 27.3854L84.058 29.8726ZM70.252 16.9751H73.606V24.6931C73.606 29.1803 70.434 30.8726 67.21 30.8726C63.986 30.8726 60.814 29.2059 60.814 24.6931V16.9751H64.168V24.7957C64.168 26.5136 65.468 27.9239 67.21 27.9239C68.952 27.9239 70.252 26.5136 70.252 24.7957V16.9751ZM53.898 13.6931C55.354 14.4623 56.55 15.6162 57.382 17.0008C58.24 18.411 58.656 19.9751 58.656 21.6674C58.656 23.3854 58.24 24.9495 57.382 26.3598C56.55 27.77 55.328 28.9239 53.898 29.7187C52.416 30.5392 50.778 30.9495 48.984 30.9495C47.19 30.9495 45.552 30.5392 44.07 29.7187C42.614 28.9239 41.418 27.77 40.586 26.3598C39.728 24.9495 39.312 23.3854 39.312 21.6674C39.312 19.9495 39.728 18.3854 40.586 17.0008C41.418 15.6162 42.64 14.4623 44.07 13.6931C45.552 12.8982 47.19 12.488 48.984 12.488C50.778 12.488 52.416 12.8982 53.898 13.6931ZM45.916 16.3854C44.98 16.9239 44.2 17.6674 43.654 18.5905C43.108 19.5136 42.822 20.5649 42.822 21.6931C42.822 22.8213 43.108 23.8726 43.654 24.7957C44.2 25.7187 44.98 26.488 45.916 27.0264C46.852 27.5649 47.892 27.8469 48.984 27.8469C50.05 27.8469 51.116 27.5649 52.026 27.0264C52.962 26.488 53.716 25.7187 54.236 24.7957C54.782 23.8469 55.068 22.77 55.042 21.6931C55.042 20.5649 54.756 19.5392 54.236 18.5905C53.716 17.6674 52.936 16.8982 52.026 16.3854C51.116 15.8469 50.05 15.5649 48.984 15.5649C47.944 15.5649 46.878 15.8469 45.916 16.3854ZM13.858 4.79565C18.642 4.79565 25.844 6.25719 29.224 9.56489C30.082 10.411 31.2 12.0521 31.2 14.488C31.2 18.7957 27.69 25.3854 23.842 29.2315C21.84 31.2059 18.668 33.7957 14.378 33.7957C10.192 33.7957 6.994 30.9751 6.084 30.0777C2.548 26.5649 0 21.2572 0 16.2828C0 13.1546 0.91 10.411 3.198 8.12899C5.33 6.00078 8.996 4.79565 13.858 4.79565ZM19.786 21.9495C21.398 20.3598 21.84 18.3854 21.84 17.3085C21.84 16.5136 21.632 15.3598 20.644 14.3854C19.11 12.8726 17.446 12.4623 15.6 12.4623C13.286 12.4623 11.726 13.1803 10.686 14.2059C9.88 15.0008 9.178 16.2572 9.178 18.0264C9.178 19.7957 10.114 21.488 11.154 22.5136C12.116 23.4623 13.598 24.1546 15.132 24.1546C16.666 24.1546 18.174 23.5392 19.786 21.9495Z" fill="#5952FF"/>
<path d="M274.562 8.3988V17.4887H266.044V8.3988H262V30.0972H266.044V21.3025H274.562V30.0972H278.606V8.3988H274.562Z" fill="#33475B"/>
<path d="M291.549 23.0832C291.549 23.9528 291.196 24.7868 290.569 25.4017C289.941 26.0166 289.09 26.362 288.203 26.362C287.316 26.362 286.465 26.0166 285.837 25.4017C285.21 24.7868 284.858 23.9528 284.858 23.0832V13.7894H281.021V23.0832C281.021 24.9481 281.777 26.7366 283.123 28.0552C284.468 29.3739 286.293 30.1147 288.196 30.1147C290.099 30.1147 291.924 29.3739 293.269 28.0552C294.615 26.7366 295.371 24.9481 295.371 23.0832V13.7894H291.549V23.0832Z" fill="#33475B"/>
<path d="M319.97 14.7468C319.97 12.8418 321.256 12.2379 322.665 12.2379C323.8 12.2379 325.3 13.0845 326.281 14.1118L328.794 11.2106C327.539 9.54839 324.995 8.3988 322.913 8.3988C318.752 8.3988 315.742 10.7873 315.742 14.7468C315.742 22.0928 324.904 19.7626 324.904 23.8735C324.904 25.1416 323.648 26.262 322.209 26.262C319.941 26.262 319.206 25.1746 318.163 24.025L315.375 26.8659C317.159 29.0117 319.358 30.1011 321.993 30.1011C325.946 30.1011 329.127 27.6835 329.127 23.9046C329.127 15.7488 319.964 18.2829 319.964 14.7468" fill="#33475B"/>
<path d="M376.651 26.631C374.384 26.631 373.74 25.6698 373.74 24.1979V17.6829H377.263V14.3817H373.74V10.0261L369.85 11.7369V25.0076C369.85 28.402 372.24 30.1128 375.517 30.1128C376.031 30.122 376.545 30.0816 377.051 29.9924L378 26.5689C377.572 26.598 377.081 26.6271 376.651 26.6271" fill="#33475B"/>
<path d="M306.15 13.8982C304.25 13.8982 302.924 14.438 301.642 15.6711V8.52893H297.8V21.7666C297.8 26.7223 301.456 30.1167 305.563 30.1167C310.12 30.1167 314.129 26.6621 314.129 22.0094C314.129 17.4149 310.44 13.9001 306.15 13.9001V13.8982ZM306.126 26.3281C305.264 26.3281 304.421 26.0775 303.704 25.6081C302.987 25.1387 302.429 24.4715 302.099 23.6908C301.769 22.9102 301.682 22.0512 301.851 21.2225C302.019 20.3938 302.434 19.6326 303.044 19.0351C303.653 18.4377 304.43 18.0308 305.276 17.866C306.121 17.7011 306.998 17.7857 307.794 18.1091C308.591 18.4324 309.271 18.98 309.75 19.6825C310.229 20.3851 310.485 21.211 310.485 22.056C310.485 23.189 310.026 24.2756 309.208 25.0768C308.391 25.878 307.282 26.3281 306.126 26.3281Z" fill="#33475B"/>
<path d="M347.866 21.8113C347.866 17.1508 343.866 13.704 339.301 13.704C335.193 13.704 331.538 17.0984 331.538 22.054V35.2995H335.38V28.1476C336.66 29.3787 337.987 29.9205 339.885 29.9205C344.175 29.9205 347.864 26.4077 347.864 21.8113H347.866ZM344.229 21.7647C344.229 22.6096 343.973 23.4356 343.494 24.1381C343.015 24.8407 342.334 25.3882 341.538 25.7116C340.741 26.0349 339.865 26.1195 339.019 25.9547C338.173 25.7898 337.397 25.383 336.787 24.7855C336.177 24.188 335.762 23.4268 335.594 22.5981C335.426 21.7694 335.512 20.9104 335.842 20.1298C336.172 19.3492 336.731 18.682 337.448 18.2125C338.165 17.7431 339.007 17.4926 339.869 17.4926C341.026 17.4926 342.134 17.9427 342.952 18.7438C343.769 19.545 344.229 20.6316 344.229 21.7647Z" fill="#33475B"/>
<path d="M360.241 13.6438V9.89992C360.745 9.66883 361.173 9.30192 361.473 8.84192C361.773 8.38192 361.934 7.84777 361.937 7.3017V7.21432C361.935 6.45118 361.624 5.71988 361.074 5.18026C360.523 4.64064 359.777 4.33658 358.998 4.33453H358.909C358.13 4.33658 357.384 4.64064 356.834 5.18026C356.283 5.71988 355.973 6.45118 355.971 7.21432V7.3017C355.973 7.84777 356.134 8.38192 356.434 8.84192C356.734 9.30192 357.162 9.66883 357.667 9.89992V13.6438C356.215 13.8614 354.848 14.4509 353.704 15.3527L343.214 7.35413C343.289 7.09028 343.329 6.81815 343.333 6.54437C343.334 5.90183 343.14 5.27349 342.777 4.73882C342.413 4.20414 341.896 3.78713 341.29 3.54053C340.685 3.29393 340.019 3.22882 339.375 3.35342C338.732 3.47802 338.141 3.78674 337.677 4.24054C337.213 4.69434 336.897 5.27284 336.768 5.90288C336.639 6.53293 336.704 7.18622 336.954 7.78014C337.204 8.37406 337.629 8.88194 338.173 9.23956C338.718 9.59717 339.359 9.78846 340.014 9.78923C340.59 9.78713 341.155 9.63644 341.653 9.35231L351.966 17.2207C351.037 18.5942 350.553 20.2104 350.576 21.858C350.599 23.5056 351.128 25.1082 352.095 26.4563L348.956 29.5322C348.704 29.4536 348.442 29.4117 348.178 29.4079C347.639 29.4079 347.112 29.5645 346.664 29.8579C346.216 30.1513 345.867 30.5683 345.661 31.0562C345.454 31.5441 345.401 32.0809 345.506 32.5989C345.611 33.1168 345.87 33.5926 346.251 33.966C346.632 34.3394 347.118 34.5937 347.646 34.6967C348.175 34.7997 348.723 34.7469 349.22 34.5448C349.718 34.3427 350.144 34.0005 350.443 33.5614C350.742 33.1223 350.902 32.6061 350.902 32.078C350.899 31.8188 350.856 31.5617 350.775 31.3148L353.88 28.2719C354.894 29.0306 356.071 29.5523 357.321 29.7973C358.572 30.0422 359.863 30.0038 361.096 29.6851C362.33 29.3664 363.472 28.7757 364.437 27.9583C365.402 27.1408 366.163 26.1181 366.663 24.9682C367.163 23.8183 367.388 22.5717 367.322 21.3235C367.255 20.0753 366.899 18.8585 366.279 17.766C365.659 16.6735 364.793 15.7342 363.747 15.0198C362.7 14.3054 361.501 13.8348 360.241 13.6438ZM358.955 25.9591C358.105 25.9591 357.275 25.7122 356.568 25.2496C355.862 24.787 355.311 24.1295 354.986 23.3603C354.661 22.591 354.576 21.7445 354.741 20.9279C354.907 20.1112 355.316 19.3611 355.917 18.7723C356.518 18.1835 357.283 17.7825 358.117 17.6201C358.95 17.4577 359.814 17.541 360.599 17.8597C361.383 18.1783 362.054 18.7179 362.526 19.4102C362.998 20.1026 363.25 20.9165 363.25 21.7492C363.25 22.8657 362.798 23.9366 361.992 24.7261C361.187 25.5156 360.094 25.9591 358.955 25.9591Z" fill="#FF7A59"/>
<path d="M533.21 20.3088C533.21 25.8609 528.95 29.9522 523.721 29.9522C518.493 29.9522 514.232 25.8609 514.232 20.3088C514.232 14.7175 518.493 10.6653 523.721 10.6653C528.95 10.6653 533.21 14.7175 533.21 20.3088ZM529.057 20.3088C529.057 16.8392 526.587 14.4653 523.721 14.4653C520.856 14.4653 518.386 16.8392 518.386 20.3088C518.386 23.7435 520.856 26.1522 523.721 26.1522C526.587 26.1522 529.057 23.7392 529.057 20.3088Z" fill="#EA4335"/>
<path d="M553.681 20.3088C553.681 25.8609 549.421 29.9522 544.192 29.9522C538.964 29.9522 534.703 25.8609 534.703 20.3088C534.703 14.7218 538.964 10.6653 544.192 10.6653C549.421 10.6653 553.681 14.7175 553.681 20.3088ZM549.527 20.3088C549.527 16.8392 547.058 14.4653 544.192 14.4653C541.326 14.4653 538.857 16.8392 538.857 20.3088C538.857 23.7435 541.326 26.1522 544.192 26.1522C547.058 26.1522 549.527 23.7392 549.527 20.3088Z" fill="#FBBC05"/>
<path d="M573.299 11.2479V28.5609C573.299 35.6827 569.179 38.5914 564.309 38.5914C559.724 38.5914 556.965 35.4653 555.924 32.9088L559.541 31.374C560.185 32.9435 561.763 34.7957 564.304 34.7957C567.422 34.7957 569.354 32.8348 569.354 29.1435V27.7566H569.209C568.279 28.9262 566.488 29.9479 564.228 29.9479C559.498 29.9479 555.165 25.7479 555.165 20.3435C555.165 14.9001 559.498 10.6653 564.228 10.6653C566.484 10.6653 568.275 11.687 569.209 12.8218H569.354V11.2522H573.299V11.2479ZM569.648 20.3435C569.648 16.9479 567.426 14.4653 564.599 14.4653C561.733 14.4653 559.332 16.9479 559.332 20.3435C559.332 23.7044 561.733 26.1522 564.599 26.1522C567.426 26.1522 569.648 23.7044 569.648 20.3435Z" fill="#4285F4"/>
<path d="M579.802 1.1001V29.361H575.751V1.1001H579.802Z" fill="#34A853"/>
<path d="M595.592 23.4826L598.816 25.6739C597.775 27.2435 595.267 29.9478 590.934 29.9478C585.561 29.9478 581.548 25.7131 581.548 20.3044C581.548 14.5696 585.595 10.6609 590.47 10.6609C595.378 10.6609 597.779 14.6435 598.564 16.7957L598.995 17.8913L586.35 23.2305C587.318 25.1652 588.823 26.1522 590.934 26.1522C593.05 26.1522 594.517 25.0913 595.592 23.4826ZM585.668 20.0131L594.12 16.4348C593.655 15.2305 592.257 14.3913 590.61 14.3913C588.499 14.3913 585.561 16.2913 585.668 20.0131Z" fill="#EA4335"/>
<path d="M498.897 17.8V13.7087H512.42C512.552 14.4217 512.62 15.2652 512.62 16.1783C512.62 19.2478 511.797 23.0435 509.145 25.7478C506.565 28.487 503.268 29.9478 498.901 29.9478C490.806 29.9478 484 23.2261 484 14.9739C484 6.72174 490.806 0 498.901 0C503.379 0 506.569 1.7913 508.966 4.12609L506.134 7.01305C504.415 5.36957 502.087 4.0913 498.897 4.0913C492.986 4.0913 488.363 8.94783 488.363 14.9739C488.363 21 492.986 25.8565 498.897 25.8565C502.731 25.8565 504.914 24.287 506.313 22.8609C507.447 21.7044 508.194 20.0522 508.488 17.7957L498.897 17.8Z" fill="#4285F4"/>
</svg>
