<svg width="42" height="35" viewBox="0 0 42 35" fill="none" xmlns="http://www.w3.org/2000/svg">
<path id="&#226;&#128;&#156;" d="M33.0662 14.9544C35.5855 15.2119 37.601 16.3061 39.1126 18.2371C40.6242 20.1681 41.38 22.5497 41.38 25.3818C41.38 28.0852 40.4982 30.338 38.7347 32.1402C36.9712 33.9425 34.5778 34.8436 31.5546 34.8436C28.6574 34.8436 26.327 33.9425 24.5635 32.1402C22.7999 30.2092 21.9182 27.3128 21.9182 23.4508C21.9182 19.4601 23.5557 15.0188 26.8309 10.127C30.106 5.10639 33.5071 1.75934 37.0342 0.0858201C37.538 -0.171642 38.2938 0.150189 39.3016 1.05131C40.3093 1.95244 40.8131 2.72484 40.8131 3.3685C37.1601 5.94315 34.5778 9.80513 33.0662 14.9544ZM11.148 14.9544C13.5414 15.2119 15.4939 16.3061 17.0055 18.2371C18.5171 20.1681 19.2729 22.5497 19.2729 25.3818C19.2729 28.0852 18.3911 30.338 16.6276 32.1402C14.99 33.9425 12.6596 34.8436 9.63644 34.8436C6.73921 34.8436 4.40883 33.9425 2.6453 32.1402C0.881765 30.2092 0 27.3128 0 23.4508C0 19.4601 1.57458 15.0188 4.72374 10.127C7.99887 5.10639 11.463 1.75934 15.116 0.0858201C15.6198 -0.171642 16.3756 0.150189 17.3834 1.05131C18.3911 1.95244 18.895 2.72484 18.895 3.3685C15.2419 5.94315 12.6596 9.80513 11.148 14.9544Z" fill="#4678EE"/>
</svg>
