<svg width="22" height="19" viewBox="0 0 22 19" fill="none" xmlns="http://www.w3.org/2000/svg">
<path id="Vector" d="M22 0.174851C21.0424 0.850328 19.9821 1.36696 18.86 1.70485C18.2577 1.01236 17.4573 0.521543 16.567 0.298777C15.6767 0.076011 14.7395 0.132046 13.8821 0.459304C13.0247 0.786562 12.2884 1.36925 11.773 2.12857C11.2575 2.88788 10.9877 3.78719 11 4.70485V5.70485C9.24263 5.75042 7.50127 5.36066 5.93101 4.5703C4.36074 3.77993 3.01032 2.61349 2 1.17485C2 1.17485 -2 10.1749 7 14.1749C4.94053 15.5728 2.48716 16.2738 0 16.1749C9 21.1749 20 16.1749 20 4.67485C19.9991 4.3963 19.9723 4.11845 19.92 3.84485C20.9406 2.83834 21.6608 1.56756 22 0.174851Z" fill="white"/>
</svg>
